<svg width="144" height="46" viewBox="0 0 144 46" fill="none" xmlns="http://www.w3.org/2000/svg">
<path d="M40 11.4936V34.5064L22.9691 44.2939V32.4412L29.6907 28.58V17.42L20 11.8528L13.2784 15.7139L2.96907 9.78751L20 0L40 11.4936Z" fill="url(#paint0_linear)"/>
<path d="M20 22.9872V46L9.69072 40.0762V28.9161L0 23.3463V11.4936L20 22.9872Z" fill="url(#paint1_linear)"/>
<path d="M58.56 16V18.64H54.78V30H52.02V18.64H48.26V16H58.56ZM68.7108 22.74C69.9374 23.4467 70.5508 24.5133 70.5508 25.94C70.5508 27.1267 70.1308 28.1 69.2908 28.86C68.4508 29.62 67.4174 30 66.1908 30H60.2508V16H65.7708C66.9708 16 67.9774 16.3733 68.7908 17.12C69.6174 17.8533 70.0308 18.7933 70.0308 19.94C70.0308 21.1 69.5908 22.0333 68.7108 22.74ZM65.7708 18.58H63.0108V21.66H65.7708C66.1974 21.66 66.5508 21.5133 66.8308 21.22C67.1241 20.9267 67.2708 20.56 67.2708 20.12C67.2708 19.68 67.1308 19.3133 66.8508 19.02C66.5708 18.7267 66.2108 18.58 65.7708 18.58ZM66.1908 27.42C66.6574 27.42 67.0441 27.2667 67.3508 26.96C67.6574 26.64 67.8108 26.24 67.8108 25.76C67.8108 25.2933 67.6574 24.9067 67.3508 24.6C67.0441 24.28 66.6574 24.12 66.1908 24.12H63.0108V27.42H66.1908ZM79.1502 30.28C77.0435 30.28 75.3035 29.58 73.9302 28.18C72.5568 26.78 71.8702 25.0533 71.8702 23C71.8702 20.9333 72.5568 19.2067 73.9302 17.82C75.3035 16.42 77.0435 15.72 79.1502 15.72C80.4168 15.72 81.5835 16.02 82.6502 16.62C83.7302 17.2067 84.5702 18.0067 85.1702 19.02L82.7902 20.4C82.4435 19.7733 81.9502 19.2867 81.3102 18.94C80.6702 18.58 79.9502 18.4 79.1502 18.4C77.7902 18.4 76.6902 18.8267 75.8502 19.68C75.0235 20.5333 74.6102 21.64 74.6102 23C74.6102 24.3467 75.0235 25.4467 75.8502 26.3C76.6902 27.1533 77.7902 27.58 79.1502 27.58C79.9502 27.58 80.6702 27.4067 81.3102 27.06C81.9635 26.7 82.4568 26.2133 82.7902 25.6L85.1702 26.98C84.5702 27.9933 83.7368 28.8 82.6702 29.4C81.6035 29.9867 80.4302 30.28 79.1502 30.28ZM93.5189 30.28C91.4122 30.28 89.6722 29.58 88.2989 28.18C86.9256 26.78 86.2389 25.0533 86.2389 23C86.2389 20.9333 86.9256 19.2067 88.2989 17.82C89.6722 16.42 91.4122 15.72 93.5189 15.72C94.7856 15.72 95.9522 16.02 97.0189 16.62C98.0989 17.2067 98.9389 18.0067 99.5389 19.02L97.1589 20.4C96.8122 19.7733 96.3189 19.2867 95.6789 18.94C95.0389 18.58 94.3189 18.4 93.5189 18.4C92.1589 18.4 91.0589 18.8267 90.2189 19.68C89.3922 20.5333 88.9789 21.64 88.9789 23C88.9789 24.3467 89.3922 25.4467 90.2189 26.3C91.0589 27.1533 92.1589 27.58 93.5189 27.58C94.3189 27.58 95.0389 27.4067 95.6789 27.06C96.3322 26.7 96.8256 26.2133 97.1589 25.6L99.5389 26.98C98.9389 27.9933 98.1056 28.8 97.0389 29.4C95.9722 29.9867 94.7989 30.28 93.5189 30.28ZM110.151 30L105.451 16H108.451L111.871 26.76L115.271 16H118.291L113.571 30H110.151ZM125.01 16C126.357 16 127.49 16.4533 128.41 17.36C129.33 18.2667 129.79 19.38 129.79 20.7C129.79 22.02 129.33 23.1333 128.41 24.04C127.49 24.9467 126.357 25.4 125.01 25.4H122.55V30H119.79V16H125.01ZM125.01 22.82C125.597 22.82 126.083 22.62 126.47 22.22C126.857 21.8067 127.05 21.3 127.05 20.7C127.05 20.0867 126.857 19.58 126.47 19.18C126.083 18.78 125.597 18.58 125.01 18.58H122.55V22.82H125.01ZM139.837 16H142.597V30H140.497L134.497 21.44V30H131.737V16H133.837L139.837 24.54V16Z" fill="black" fill-opacity="0.87"/>
<defs>
<linearGradient id="paint0_linear" x1="0" y1="28.7468" x2="20" y2="28.7468" gradientUnits="userSpaceOnUse">
<stop stop-color="#00F5A0"/>
<stop offset="1" stop-color="#00D9F5"/>
</linearGradient>
<linearGradient id="paint1_linear" x1="0" y1="28.7468" x2="20" y2="28.7468" gradientUnits="userSpaceOnUse">
<stop stop-color="#00F5A0"/>
<stop offset="1" stop-color="#00D9F5"/>
</linearGradient>
</defs>
</svg>
