<svg width="100" height="100" viewBox="0 0 100 100" fill="none" xmlns="http://www.w3.org/2000/svg">
<path d="M53.7799 42.3875H54.0065L53.9783 42.1626C53.2337 36.2219 49.1886 31.2947 43.7393 29.2862L43.3021 29.125L43.4864 29.553C44.9162 32.872 45.6908 37.5217 45.8585 42.1947L45.8654 42.3875H46.0584H53.7799ZM34.413 45.8937L34.2054 45.8938L34.2132 46.1013C34.3555 49.8584 34.9041 53.3255 35.8011 56.0162C36.3309 57.6055 36.8703 58.5795 37.3071 59.1606C37.5254 59.4511 37.7196 59.6456 37.8761 59.7696C37.9542 59.8315 38.025 59.8775 38.0866 59.909C38.1404 59.9365 38.2108 59.9656 38.2812 59.9656C38.3517 59.9656 38.4221 59.9365 38.4759 59.909C38.5375 59.8775 38.6083 59.8315 38.6864 59.7696C38.8429 59.6456 39.0371 59.4511 39.2554 59.1606C39.6921 58.5795 40.2315 57.6055 40.7612 56.0162C41.6582 53.3255 42.207 49.8564 42.3491 46.0994L42.3569 45.8917L42.1492 45.8918L34.413 45.8937ZM34.2132 42.1799L34.2054 42.3875H34.4131H42.1494H42.3571L42.3493 42.1799C42.207 38.4229 41.6584 34.9557 40.7614 32.2651C40.2316 30.6758 39.6922 29.7018 39.2554 29.1206C39.0371 28.8301 38.8429 28.6357 38.6864 28.5117C38.6083 28.4498 38.5375 28.4038 38.4759 28.3722C38.4221 28.3447 38.3517 28.3156 38.2812 28.3156C38.2108 28.3156 38.1404 28.3447 38.0867 28.3722C38.025 28.4038 37.9542 28.4498 37.8761 28.5116C37.7196 28.6356 37.5254 28.8301 37.3071 29.1206C36.8703 29.7017 36.3309 30.6757 35.8011 32.2651C34.9041 34.9557 34.3553 38.4229 34.2132 42.1799ZM33.0763 29.553L33.2606 29.125L32.8234 29.2862C27.3739 31.2947 23.3288 36.2219 22.5844 42.1626L22.5562 42.3875H22.7828H30.5043H30.6972L30.7042 42.1947C30.8719 37.5217 31.6465 32.8718 33.0763 29.553ZM22.7826 45.8937H22.556L22.5842 46.1186C23.3288 52.0592 27.3739 56.9864 32.8232 58.9951L33.2604 59.1562L33.0761 58.7283C31.6463 55.4092 30.8717 50.7596 30.704 46.0866L30.6971 45.8937H30.5041H22.7826ZM43.4862 58.7281L43.3019 59.156L43.7391 58.9949C49.1886 56.9864 53.2337 52.0592 53.9781 46.1184L54.0063 45.8936L53.7797 45.8936L46.0583 45.8916L45.8653 45.8916L45.8583 46.0844C45.6906 50.7574 44.916 55.4093 43.4862 58.7281ZM18.95 44.1406C18.95 33.4816 27.6222 24.8094 38.2812 24.8094C48.9403 24.8094 57.6125 33.4816 57.6125 44.1406C57.6125 54.7997 48.9403 63.4719 38.2812 63.4719C27.6222 63.4719 18.95 54.7997 18.95 44.1406Z" fill="url(#paint0_linear)" stroke="white" stroke-width="0.4"/>
<path d="M75.5615 55.504L75.7029 55.3626L78.4644 52.6011C79.3399 51.7254 79.0549 50.2383 77.9154 49.7499L77.9941 49.5661L77.9153 49.7499L63.4154 43.5351C63.4154 43.5351 63.4154 43.5351 63.4153 43.5351C62.7565 43.2529 61.9921 43.3999 61.4849 43.9068C60.9781 44.4138 60.8309 45.1782 61.1133 45.8371C61.1133 45.8371 61.1133 45.8371 61.1133 45.8371L67.3282 60.3371L67.1443 60.4159L67.3282 60.3371C67.8184 61.4809 69.3059 61.7596 70.1793 60.8862L72.9408 58.1247L73.0822 57.9833L73.2236 58.1247L78.0574 62.9585C78.742 63.6431 79.8521 63.6431 80.5369 62.9585L75.5615 55.504ZM75.5615 55.504L75.7029 55.6454M75.5615 55.504L75.7029 55.6454M75.7029 55.6454L80.5367 60.4792M75.7029 55.6454L80.5367 60.4792M80.5367 60.4792C80.5367 60.4792 80.5367 60.4792 80.5367 60.4792M80.5367 60.4792L80.5367 60.4792M80.5367 60.4792C81.2213 61.164 81.2213 62.2741 80.5369 62.9585L80.5367 60.4792ZM69.4146 56.3047L69.531 56.5762L69.7399 56.3673L71.8416 54.2655L71.8416 54.2655L71.8416 54.2655L71.8416 54.2655L71.8416 54.2655L71.8416 54.2655L71.8417 54.2655L71.8417 54.2655L71.8417 54.2655L71.8417 54.2655L71.8417 54.2655L71.8417 54.2655L71.8417 54.2655L71.8417 54.2655L71.8417 54.2655L71.8417 54.2654L71.8417 54.2654L71.8417 54.2654L71.8417 54.2654L71.8417 54.2654L71.8417 54.2654L71.8417 54.2654L71.8418 54.2654L71.8418 54.2654L71.8418 54.2654L71.8418 54.2654L71.8418 54.2654L71.8418 54.2654L71.8418 54.2654L71.8418 54.2654L71.8418 54.2654L71.8418 54.2654L71.8418 54.2653L71.8418 54.2653L71.8418 54.2653L71.8418 54.2653L71.8418 54.2653L71.8418 54.2653L71.8418 54.2653L71.8419 54.2653L71.8419 54.2653L71.8419 54.2653L71.8419 54.2653L71.8419 54.2653L71.8419 54.2653L71.8419 54.2653L71.8419 54.2653L71.8419 54.2653L71.8419 54.2653L71.8419 54.2652L71.8419 54.2652L71.8419 54.2652L71.8419 54.2652L71.8419 54.2652L71.8419 54.2652L71.8419 54.2652L71.842 54.2652L71.842 54.2652L71.842 54.2652L71.842 54.2652L71.842 54.2652L71.842 54.2652L71.842 54.2652L71.842 54.2652L71.842 54.2652L71.842 54.2652L71.842 54.2651L71.842 54.2651L71.842 54.2651L71.842 54.2651L71.842 54.2651L71.842 54.2651L71.8421 54.2651L71.8421 54.2651L71.8421 54.2651L71.8421 54.2651L71.8421 54.2651L71.8421 54.2651L71.8421 54.2651L71.8421 54.2651L71.8421 54.2651L71.8421 54.2651L71.8421 54.265L71.8421 54.265L71.8421 54.265L71.8421 54.265L71.8421 54.265L71.8421 54.265L71.8422 54.265L71.8422 54.265L71.8422 54.265L71.8422 54.265L71.8422 54.265L71.8422 54.265L71.8422 54.265L71.8422 54.265L71.8422 54.265L71.8422 54.265L71.8422 54.2649L71.8422 54.2649L71.8422 54.2649L71.8422 54.2649L71.8422 54.2649L71.8422 54.2649L71.8422 54.2649L71.8423 54.2649L71.8423 54.2649L71.8423 54.2649L71.8423 54.2649L71.8423 54.2649L71.8423 54.2649L71.8423 54.2649L71.8423 54.2649L71.8423 54.2649L71.8423 54.2649L71.8423 54.2649L71.8423 54.2648L71.8423 54.2648L71.8423 54.2648L71.8423 54.2648L71.8423 54.2648L71.8423 54.2648L71.8424 54.2648L71.8424 54.2648L71.8424 54.2648L71.8424 54.2648L71.8424 54.2648L71.8424 54.2648L71.8424 54.2648L71.8424 54.2648L71.8424 54.2648L71.8424 54.2648L71.8424 54.2648L71.8424 54.2647L71.8424 54.2647L71.8424 54.2647L71.8424 54.2647L71.8424 54.2647L71.8424 54.2647L71.8425 54.2647L71.8425 54.2647L71.8425 54.2647L71.8425 54.2647L71.8425 54.2647L71.8425 54.2647L71.8425 54.2647L71.8425 54.2647L71.8425 54.2647L71.8425 54.2647L71.8425 54.2646L71.8425 54.2646L71.8425 54.2646L71.8425 54.2646L71.8425 54.2646L71.8425 54.2646L71.8426 54.2646L71.8426 54.2646L71.8426 54.2646L71.8426 54.2646L71.8426 54.2646L71.8426 54.2646L71.7012 54.1231L71.8426 54.2646L71.8426 54.2646L71.8426 54.2646L71.8426 54.2646L71.8426 54.2645L71.8426 54.2645L71.8426 54.2645L71.8426 54.2645L71.8426 54.2645L71.8427 54.2645L71.8427 54.2645L71.8427 54.2645L71.8427 54.2645L71.8427 54.2645L71.8427 54.2645L71.8427 54.2645L71.8427 54.2645L71.8427 54.2645L71.8427 54.2645L71.8427 54.2644L71.8427 54.2644L71.8427 54.2644L71.8427 54.2644L71.8427 54.2644L71.8427 54.2644L71.8428 54.2644L71.8428 54.2644L71.8428 54.2644L71.8428 54.2644L71.8428 54.2644L71.8428 54.2644L71.8428 54.2644L71.8428 54.2644L71.8428 54.2644L71.8428 54.2644L71.8428 54.2644L71.8428 54.2643L71.8428 54.2643L71.8428 54.2643L71.8428 54.2643L71.8428 54.2643L71.8428 54.2643L71.8428 54.2643L71.8429 54.2643L71.8429 54.2643L71.8429 54.2643L71.8429 54.2643L71.8429 54.2643L71.8429 54.2643L71.8429 54.2643L71.8429 54.2643L71.8429 54.2643L71.8429 54.2643L71.8429 54.2642L71.8429 54.2642L71.8429 54.2642L71.8429 54.2642L71.8429 54.2642L71.8429 54.2642L71.843 54.2642L71.843 54.2642L71.843 54.2642L71.843 54.2642L71.843 54.2642L71.843 54.2642L71.843 54.2642L71.843 54.2642L71.843 54.2642L71.843 54.2642L71.843 54.2642L71.843 54.2641L71.843 54.2641L71.843 54.2641L71.843 54.2641L71.843 54.2641L71.843 54.2641L71.8431 54.2641L71.8431 54.2641L71.8431 54.2641L71.8431 54.2641L71.8431 54.2641L71.8431 54.2641L71.8431 54.2641L71.8431 54.2641L71.8431 54.2641L71.8431 54.2641L71.8431 54.264L71.8431 54.264L71.8431 54.264L71.8431 54.264L71.8431 54.264L71.8431 54.264L71.8432 54.264L71.8432 54.264L71.8432 54.264L71.8432 54.264L71.8432 54.264L71.8432 54.264L71.8432 54.264L71.8432 54.264L71.8432 54.264L71.8432 54.264L71.8432 54.2639L71.8432 54.2639L71.8432 54.2639L71.8432 54.2639L71.8432 54.2639L71.8432 54.2639L71.8432 54.2639L71.8433 54.2639L71.8433 54.2639L71.8433 54.2639L71.8433 54.2639L71.8433 54.2639L71.8433 54.2639L71.8433 54.2639L71.8433 54.2639L71.8433 54.2639L71.8433 54.2639L71.8433 54.2639L71.8433 54.2638L71.8433 54.2638L71.8433 54.2638L71.8433 54.2638L71.8433 54.2638L71.8433 54.2638L71.8434 54.2638L71.8434 54.2638L71.8434 54.2638L71.8434 54.2638L71.8434 54.2638L71.8434 54.2638L71.8434 54.2638L71.8434 54.2638L71.8434 54.2638L71.8434 54.2638L71.8434 54.2638L71.8434 54.2637L71.8434 54.2637L71.8434 54.2637L71.8434 54.2637L71.8434 54.2637L71.8434 54.2637L71.8435 54.2637L71.8435 54.2637L71.8435 54.2637L71.8435 54.2637L71.8435 54.2637L71.8435 54.2637L71.8435 54.2637L71.8435 54.2637L71.8435 54.2637L71.8435 54.2637L71.8435 54.2636L71.8435 54.2636L71.8435 54.2636L71.8435 54.2636L71.8435 54.2636L71.8435 54.2636L71.8436 54.2636L71.8436 54.2636L71.7021 54.1222L71.8436 54.2636L73.9455 52.1616L74.1544 51.9528L73.8829 51.8364L66.5225 48.6817L66.0629 48.4847L66.2599 48.9443L69.4146 56.3047Z" fill="url(#paint1_linear)" stroke="white" stroke-width="0.4"/>
<path d="M98.0469 71.4844H94.1406V14.8438C94.1406 13.765 93.2662 12.8906 92.1875 12.8906H7.8125C6.73379 12.8906 5.85938 13.765 5.85938 14.8438V71.4844H1.95312C0.874414 71.4844 0 72.3588 0 73.4375C0 80.9762 6.1332 87.1094 13.6719 87.1094H61.2109C62.2896 87.1094 63.1641 86.235 63.1641 85.1562C63.1641 84.0775 62.2896 83.2031 61.2109 83.2031H13.6719C8.95586 83.2031 5.00996 79.8426 4.10234 75.3887H95.8975C94.99 79.8426 91.0441 83.2031 86.3281 83.2031H58.7891C57.7104 83.2031 56.8359 84.0775 56.8359 85.1562C56.8359 86.235 57.7104 87.1094 58.7891 87.1094H86.3281C93.8668 87.1094 100 80.9762 100 73.4375C100 72.3588 99.1256 71.4844 98.0469 71.4844ZM9.76562 16.7969H90.2344V71.4844H9.76562V16.7969Z" fill="url(#paint2_linear)"/>
<defs>
<linearGradient id="paint0_linear" x1="18.75" y1="49.0207" x2="38.2812" y2="49.0207" gradientUnits="userSpaceOnUse">
<stop stop-color="#00F5A0"/>
<stop offset="1" stop-color="#00D9F5"/>
</linearGradient>
<linearGradient id="paint1_linear" x1="60.7715" y1="55.991" x2="71.0108" y2="55.991" gradientUnits="userSpaceOnUse">
<stop stop-color="#00F5A0"/>
<stop offset="1" stop-color="#00D9F5"/>
</linearGradient>
<linearGradient id="paint2_linear" x1="0" y1="59.2722" x2="50" y2="59.2722" gradientUnits="userSpaceOnUse">
<stop stop-color="#00F5A0"/>
<stop offset="1" stop-color="#00D9F5"/>
</linearGradient>
</defs>
</svg>
