<svg width="100" height="100" viewBox="0 0 100 100" fill="none" xmlns="http://www.w3.org/2000/svg">
<path d="M98.0469 71.4844H94.1406V14.8438C94.1406 13.765 93.2662 12.8906 92.1875 12.8906H7.8125C6.73379 12.8906 5.85938 13.765 5.85938 14.8438V71.4844H1.95312C0.874414 71.4844 0 72.3588 0 73.4375C0 80.9762 6.1332 87.1094 13.6719 87.1094H61.2109C62.2896 87.1094 63.1641 86.235 63.1641 85.1562C63.1641 84.0775 62.2896 83.2031 61.2109 83.2031H13.6719C8.95586 83.2031 5.00996 79.8426 4.10234 75.3887H95.8975C94.99 79.8426 91.0441 83.2031 86.3281 83.2031H58.7891C57.7104 83.2031 56.8359 84.0775 56.8359 85.1562C56.8359 86.235 57.7104 87.1094 58.7891 87.1094H86.3281C93.8668 87.1094 100 80.9762 100 73.4375C100 72.3588 99.1256 71.4844 98.0469 71.4844ZM9.76562 16.7969H90.2344V71.4844H9.76562V16.7969Z" fill="url(#paint0_linear)"/>
<path d="M60.3162 27.112L60.3163 27.1121L63.4218 37.0092C66.6101 37.9684 69.501 39.7006 71.8264 42.0461L71.8322 42.0519L71.832 42.0521C72.1646 42.4261 72.2439 42.9571 72.0338 43.4097C71.824 43.8618 71.3652 44.15 70.8619 44.15L29.1455 44.15C29.1454 44.15 29.1453 44.15 29.1452 44.15H29.1447V44L60.3162 27.112ZM60.3162 27.112C59.9225 25.8611 59.0065 24.8335 57.797 24.2833C56.5876 23.7332 55.1971 23.7114 53.9704 24.2234L53.97 24.2235M60.3162 27.112L53.97 24.2235M53.97 24.2235L50.8316 25.5442L50.8301 25.5448M53.97 24.2235L50.8301 25.5448M50.8301 25.5448C50.3021 25.7737 49.6999 25.7737 49.1719 25.5448L49.1707 25.5443M50.8301 25.5448L49.1707 25.5443M49.1707 25.5443L46.0356 24.2192L46.035 24.2189M49.1707 25.5443L46.035 24.2189M46.035 24.2189C44.8083 23.7069 43.4179 23.7287 42.2084 24.2789C40.9989 24.8291 40.0829 25.8566 39.6892 27.1076L39.6892 27.1077M46.035 24.2189L39.6892 27.1077M39.6892 27.1077L36.5836 37.0091L39.6892 27.1077ZM59.0984 45.8913H59.0983C56.269 45.8951 53.654 47.3891 52.2058 49.8183C50.8756 49.1071 49.2784 49.1071 47.9481 49.8183C45.7968 46.2066 41.2449 44.8256 37.4507 46.6582C33.6123 48.5123 31.8541 53.0253 33.4216 56.9982C34.9891 60.9714 39.3505 63.0555 43.4145 61.7724C47.4448 60.5 49.8238 56.3452 48.9036 52.2216C49.6227 51.7769 50.5315 51.7769 51.2507 52.2217C50.5222 55.5328 51.9366 58.9533 54.7981 60.7733C57.6893 62.6122 61.4242 62.4141 64.1059 60.2795C66.7874 58.1451 67.8283 54.5423 66.7002 51.3006C65.5721 48.0589 62.522 45.8881 59.0984 45.8913ZM32.6327 41.6191C36.6353 39.0406 43.0303 37.4574 50.0033 37.4574L50.0043 37.4574C54.042 37.4287 58.0603 38.0061 61.9196 39.1696C61.9762 39.1907 62.0343 39.2075 62.0935 39.2198C63.9514 39.7846 65.7225 40.5918 67.3592 41.6191H32.6327ZM41.0553 59.4654C38.0246 59.4653 35.567 57.0007 35.567 53.9595C35.567 50.9182 38.0247 48.4536 41.0555 48.4536C44.0861 48.4536 46.5438 50.9181 46.5439 53.9593C46.5403 56.9991 44.0846 59.4617 41.0553 59.4654ZM59.0983 59.4654C56.0677 59.4653 53.6101 57.0007 53.6101 53.9595C53.6101 50.9182 56.0678 48.4536 59.0985 48.4536C62.1292 48.4536 64.5869 50.9181 64.587 53.9593C64.5833 56.9991 62.1277 59.4617 59.0983 59.4654ZM42.1533 27.8526C42.3316 27.2896 42.7449 26.8257 43.2922 26.5766C43.8396 26.3274 44.4691 26.3166 45.025 26.547C45.0251 26.5471 45.0252 26.5471 45.0253 26.5472L48.1438 27.8582C48.144 27.8582 48.1442 27.8583 48.1444 27.8584C49.3264 28.3662 50.6711 28.3662 51.8532 27.8583C51.8533 27.8583 51.8535 27.8582 51.8536 27.8582L54.9777 26.5427C54.9779 26.5427 54.978 26.5426 54.9782 26.5426C55.5342 26.3126 56.1637 26.3237 56.711 26.573C57.2583 26.8223 57.6715 27.2863 57.8498 27.8493L60.4526 36.147C53.5838 34.5138 46.4161 34.5138 39.5473 36.147L42.1533 27.8526Z" fill="url(#paint1_linear)" stroke="url(#paint2_linear)" stroke-width="0.3"/>
<defs>
<linearGradient id="paint0_linear" x1="0" y1="59.2722" x2="50" y2="59.2722" gradientUnits="userSpaceOnUse">
<stop stop-color="#00F5A0"/>
<stop offset="1" stop-color="#00D9F5"/>
</linearGradient>
<linearGradient id="paint1_linear" x1="28" y1="47.7473" x2="50" y2="47.7473" gradientUnits="userSpaceOnUse">
<stop stop-color="#00F5A0"/>
<stop offset="1" stop-color="#00D9F5"/>
</linearGradient>
<linearGradient id="paint2_linear" x1="28" y1="47.7473" x2="50" y2="47.7473" gradientUnits="userSpaceOnUse">
<stop stop-color="#00F5A0"/>
<stop offset="1" stop-color="#00D9F5"/>
</linearGradient>
</defs>
</svg>
