<svg width="512" height="512" viewBox="0 0 512 512" fill="none" xmlns="http://www.w3.org/2000/svg">
<mask id="path-1-inside-1" fill="white">
<path d="M491.152 119.352C494.096 118.096 496 115.2 496 112V47.9999C496 44.7999 494.096 41.9039 491.152 40.6479L435.152 16.6479C433.152 15.7919 430.856 15.7919 428.856 16.6479L372.856 40.6479C369.904 41.9039 368 44.7999 368 47.9999V79.9999H320V47.9999C320 44.7999 318.096 41.9039 315.152 40.6479L259.152 16.6479C257.152 15.7919 254.856 15.7919 252.856 16.6479L196.856 40.6479C193.904 41.9039 192 44.7999 192 47.9999V79.9999H144V47.9999C144 44.7999 142.096 41.9039 139.152 40.6479L83.152 16.6479C81.152 15.7919 78.856 15.7919 76.856 16.6479L20.856 40.6479C17.904 41.9039 16 44.7999 16 47.9999V112C16 115.2 17.904 118.096 20.848 119.352L72 141.272V194.728L20.848 216.648C17.904 217.904 16 220.8 16 224V288C16 291.2 17.904 294.096 20.848 295.352L72 317.272V370.728L20.848 392.648C17.904 393.904 16 396.8 16 400V464C16 467.2 17.904 470.096 20.848 471.352L76.848 495.352C77.848 495.784 78.928 496 80 496C81.072 496 82.152 495.784 83.152 495.352L139.152 471.352C142.096 470.096 144 467.2 144 464V448H192V464C192 467.2 193.904 470.096 196.848 471.352L252.848 495.352C253.848 495.784 254.928 496 256 496C257.072 496 258.152 495.784 259.152 495.352L315.152 471.352C318.096 470.096 320 467.2 320 464V448H368V464C368 467.2 369.904 470.096 372.848 471.352L428.848 495.352C429.848 495.784 430.928 496 432 496C433.072 496 434.152 495.784 435.152 495.352L491.152 471.352C494.096 470.096 496 467.2 496 464V400C496 396.8 494.096 393.904 491.152 392.648L440 370.728V317.272L491.152 295.352C494.096 294.096 496 291.2 496 288V224C496 220.8 494.096 217.904 491.152 216.648L440 194.728V141.272L491.152 119.352ZM440 123.872V77.2719L480 60.1279V106.728L440 123.872ZM432 32.7039L467.688 47.9999L432 63.2959L396.312 47.9999L432 32.7039ZM384 60.1279L424 77.2719V123.872L384 106.728V95.9999H400V79.9999H384V60.1279ZM368 95.9999V112C368 115.2 369.904 118.096 372.848 119.352L424 141.272V194.728L372.848 216.648C369.904 217.904 368 220.8 368 224V256H320V224C320 220.8 318.096 217.904 315.152 216.648L264 194.728V141.272L315.152 119.352C318.096 118.096 320 115.2 320 112V95.9999H368ZM424 299.872L384 282.728V272H400V256H384V236.128L424 253.272V299.872ZM304 272V282.728L264 299.872V253.272L304 236.128V256H288V272H304ZM256 415.296L220.312 400L248 388.136V400H264V388.136L291.688 400L256 415.296ZM208 272H224V256H208V236.128L248 253.272V299.872L208 282.728V272ZM264 224V212.136L291.688 224L256 239.296L220.312 224L248 212.136V224H264ZM304 95.9999V106.728L264 123.872V77.2719L304 60.1279V79.9999H288V95.9999H304ZM256 32.7039L291.688 47.9999L256 63.2959L220.312 47.9999L256 32.7039ZM208 60.1279L248 77.2719V123.872L208 106.728V95.9999H224V79.9999H208V60.1279ZM192 95.9999V112C192 115.2 193.904 118.096 196.848 119.352L248 141.272V194.728L196.848 216.648C193.904 217.904 192 220.8 192 224V256H144V224C144 220.8 142.096 217.904 139.152 216.648L88 194.728V141.272L139.152 119.352C142.096 118.096 144 115.2 144 112V95.9999H192ZM128 272V282.728L88 299.872V253.272L128 236.128V256H112V272H128ZM128 95.9999V106.728L88 123.872V77.2719L128 60.1279V79.9999H112V95.9999H128ZM80 32.7039L115.688 47.9999L80 63.2959L44.312 47.9999L80 32.7039ZM32 60.1279L72 77.2719V123.872L32 106.728V60.1279ZM72 212.136V224H88V212.136L115.688 224L80 239.296L44.312 224L72 212.136ZM32 236.128L72 253.272V299.872L32 282.728V236.128ZM72 388.136V400H88V388.136L115.688 400L80 415.296L44.312 400L72 388.136ZM32 412.128L72 429.272V475.872L32 458.728V412.128ZM128 458.728L88 475.872V429.272L128 412.128V432H112V448H128V458.728ZM144 432V400C144 396.8 142.096 393.904 139.152 392.648L88 370.728V317.272L139.152 295.352C142.096 294.096 144 291.2 144 288V272H192V288C192 291.2 193.904 294.096 196.848 295.352L248 317.272V370.728L196.848 392.648C193.904 393.904 192 396.8 192 400V432H144ZM208 448H224V432H208V412.128L248 429.272V475.872L208 458.728V448ZM304 458.728L264 475.872V429.272L304 412.128V432H288V448H304V458.728ZM320 432V400C320 396.8 318.096 393.904 315.152 392.648L264 370.728V317.272L315.152 295.352C318.096 294.096 320 291.2 320 288V272H368V288C368 291.2 369.904 294.096 372.848 295.352L424 317.272V370.728L372.848 392.648C369.904 393.904 368 396.8 368 400V432H320ZM384 448H400V432H384V412.128L424 429.272V475.872L384 458.728V448ZM440 475.872V429.272L480 412.128V458.728L440 475.872ZM467.688 400L432 415.296L396.312 400L424 388.136V400H440V388.136L467.688 400ZM440 299.872V253.272L480 236.128V282.728L440 299.872ZM467.688 224L432 239.296L396.312 224L424 212.136V224H440V212.136L467.688 224Z"/>
</mask>
<path d="M491.152 119.352C494.096 118.096 496 115.2 496 112V47.9999C496 44.7999 494.096 41.9039 491.152 40.6479L435.152 16.6479C433.152 15.7919 430.856 15.7919 428.856 16.6479L372.856 40.6479C369.904 41.9039 368 44.7999 368 47.9999V79.9999H320V47.9999C320 44.7999 318.096 41.9039 315.152 40.6479L259.152 16.6479C257.152 15.7919 254.856 15.7919 252.856 16.6479L196.856 40.6479C193.904 41.9039 192 44.7999 192 47.9999V79.9999H144V47.9999C144 44.7999 142.096 41.9039 139.152 40.6479L83.152 16.6479C81.152 15.7919 78.856 15.7919 76.856 16.6479L20.856 40.6479C17.904 41.9039 16 44.7999 16 47.9999V112C16 115.2 17.904 118.096 20.848 119.352L72 141.272V194.728L20.848 216.648C17.904 217.904 16 220.8 16 224V288C16 291.2 17.904 294.096 20.848 295.352L72 317.272V370.728L20.848 392.648C17.904 393.904 16 396.8 16 400V464C16 467.2 17.904 470.096 20.848 471.352L76.848 495.352C77.848 495.784 78.928 496 80 496C81.072 496 82.152 495.784 83.152 495.352L139.152 471.352C142.096 470.096 144 467.2 144 464V448H192V464C192 467.2 193.904 470.096 196.848 471.352L252.848 495.352C253.848 495.784 254.928 496 256 496C257.072 496 258.152 495.784 259.152 495.352L315.152 471.352C318.096 470.096 320 467.2 320 464V448H368V464C368 467.2 369.904 470.096 372.848 471.352L428.848 495.352C429.848 495.784 430.928 496 432 496C433.072 496 434.152 495.784 435.152 495.352L491.152 471.352C494.096 470.096 496 467.2 496 464V400C496 396.8 494.096 393.904 491.152 392.648L440 370.728V317.272L491.152 295.352C494.096 294.096 496 291.2 496 288V224C496 220.8 494.096 217.904 491.152 216.648L440 194.728V141.272L491.152 119.352ZM440 123.872V77.2719L480 60.1279V106.728L440 123.872ZM432 32.7039L467.688 47.9999L432 63.2959L396.312 47.9999L432 32.7039ZM384 60.1279L424 77.2719V123.872L384 106.728V95.9999H400V79.9999H384V60.1279ZM368 95.9999V112C368 115.2 369.904 118.096 372.848 119.352L424 141.272V194.728L372.848 216.648C369.904 217.904 368 220.8 368 224V256H320V224C320 220.8 318.096 217.904 315.152 216.648L264 194.728V141.272L315.152 119.352C318.096 118.096 320 115.2 320 112V95.9999H368ZM424 299.872L384 282.728V272H400V256H384V236.128L424 253.272V299.872ZM304 272V282.728L264 299.872V253.272L304 236.128V256H288V272H304ZM256 415.296L220.312 400L248 388.136V400H264V388.136L291.688 400L256 415.296ZM208 272H224V256H208V236.128L248 253.272V299.872L208 282.728V272ZM264 224V212.136L291.688 224L256 239.296L220.312 224L248 212.136V224H264ZM304 95.9999V106.728L264 123.872V77.2719L304 60.1279V79.9999H288V95.9999H304ZM256 32.7039L291.688 47.9999L256 63.2959L220.312 47.9999L256 32.7039ZM208 60.1279L248 77.2719V123.872L208 106.728V95.9999H224V79.9999H208V60.1279ZM192 95.9999V112C192 115.2 193.904 118.096 196.848 119.352L248 141.272V194.728L196.848 216.648C193.904 217.904 192 220.8 192 224V256H144V224C144 220.8 142.096 217.904 139.152 216.648L88 194.728V141.272L139.152 119.352C142.096 118.096 144 115.2 144 112V95.9999H192ZM128 272V282.728L88 299.872V253.272L128 236.128V256H112V272H128ZM128 95.9999V106.728L88 123.872V77.2719L128 60.1279V79.9999H112V95.9999H128ZM80 32.7039L115.688 47.9999L80 63.2959L44.312 47.9999L80 32.7039ZM32 60.1279L72 77.2719V123.872L32 106.728V60.1279ZM72 212.136V224H88V212.136L115.688 224L80 239.296L44.312 224L72 212.136ZM32 236.128L72 253.272V299.872L32 282.728V236.128ZM72 388.136V400H88V388.136L115.688 400L80 415.296L44.312 400L72 388.136ZM32 412.128L72 429.272V475.872L32 458.728V412.128ZM128 458.728L88 475.872V429.272L128 412.128V432H112V448H128V458.728ZM144 432V400C144 396.8 142.096 393.904 139.152 392.648L88 370.728V317.272L139.152 295.352C142.096 294.096 144 291.2 144 288V272H192V288C192 291.2 193.904 294.096 196.848 295.352L248 317.272V370.728L196.848 392.648C193.904 393.904 192 396.8 192 400V432H144ZM208 448H224V432H208V412.128L248 429.272V475.872L208 458.728V448ZM304 458.728L264 475.872V429.272L304 412.128V432H288V448H304V458.728ZM320 432V400C320 396.8 318.096 393.904 315.152 392.648L264 370.728V317.272L315.152 295.352C318.096 294.096 320 291.2 320 288V272H368V288C368 291.2 369.904 294.096 372.848 295.352L424 317.272V370.728L372.848 392.648C369.904 393.904 368 396.8 368 400V432H320ZM384 448H400V432H384V412.128L424 429.272V475.872L384 458.728V448ZM440 475.872V429.272L480 412.128V458.728L440 475.872ZM467.688 400L432 415.296L396.312 400L424 388.136V400H440V388.136L467.688 400ZM440 299.872V253.272L480 236.128V282.728L440 299.872ZM467.688 224L432 239.296L396.312 224L424 212.136V224H440V212.136L467.688 224Z" fill="#00BFD8" stroke="white" stroke-width="14" mask="url(#path-1-inside-1)"/>
<rect x="156.333" y="156.333" width="199.333" height="199.333" rx="99.6667" fill="white"/>
<path d="M305.195 228.46V285.064L263.064 309.138V279.984L279.692 270.487V243.037L255.719 229.343L239.091 238.841L213.588 224.264L255.719 200.189L305.195 228.46Z" fill="url(#paint0_linear)"/>
<path d="M255.719 256.731V313.335L230.216 298.764V271.314L206.243 257.614V228.46L255.719 256.731Z" fill="url(#paint1_linear)"/>
<rect x="156.333" y="156.333" width="199.333" height="199.333" rx="99.6667" stroke="url(#paint2_linear)" stroke-width="0.666667"/>
<defs>
<linearGradient id="paint0_linear" x1="206.243" y1="270.897" x2="255.719" y2="270.897" gradientUnits="userSpaceOnUse">
<stop stop-color="#00F5A0"/>
<stop offset="1" stop-color="#00D9F5"/>
</linearGradient>
<linearGradient id="paint1_linear" x1="206.243" y1="270.897" x2="255.719" y2="270.897" gradientUnits="userSpaceOnUse">
<stop stop-color="#00F5A0"/>
<stop offset="1" stop-color="#00D9F5"/>
</linearGradient>
<linearGradient id="paint2_linear" x1="156" y1="280.986" x2="256" y2="280.986" gradientUnits="userSpaceOnUse">
<stop stop-color="#00F5A0"/>
<stop offset="1" stop-color="#00D9F5"/>
</linearGradient>
</defs>
</svg>
